<svg width="22" height="36" viewBox="0 0 22 36" fill="none" xmlns="http://www.w3.org/2000/svg">
<path d="M11.0215 2.93302C14.1472 6.9011 15.8158 11.7944 15.7553 16.8155V18.0141L16.7865 18.6416C18.119 19.4482 19.1127 20.6993 19.5866 22.1669C19.1705 21.8605 18.7352 21.5803 18.2833 21.3278L15.5333 19.7838L15.0391 22.9001C14.9963 23.1755 14.9389 23.4485 14.8672 23.718H7.16151C7.04692 23.3655 6.95382 23.0129 6.86789 22.6463L6.24484 19.8261L3.70968 21.2362C3.28615 21.473 2.87723 21.7344 2.48507 22.0188C2.96824 20.5682 3.94123 19.3242 5.24224 18.4935L6.22336 17.866V16.7521C6.24106 11.7513 7.92967 6.89523 11.0287 2.93302H11.0215ZM11.0287 0C10.868 0.000390307 10.7128 0.0579856 10.5918 0.162162L10.5274 0.218566C6.39778 4.76564 4.10466 10.6454 4.08208 16.745C2.32967 17.8643 1.03251 19.5543 0.417263 21.5197C-0.197979 23.485 -0.0921719 25.6007 0.716194 27.4971C1.56776 25.6455 2.99131 24.1058 4.7839 23.0975C4.96368 23.8642 5.2031 24.6161 5.50005 25.3467C5.53771 25.4871 5.62118 25.6114 5.73763 25.7006C5.85408 25.7898 5.99706 25.8388 6.14458 25.8402H16.0847C16.2852 25.8402 16.4857 25.6498 16.586 25.3537C16.8758 24.6592 17.0778 23.9322 17.1875 23.1892C18.9836 24.1932 20.4083 25.7342 21.2553 27.5887C22.1124 25.7017 22.2451 23.5727 21.6287 21.5967C21.0124 19.6206 19.6888 17.9319 17.9037 16.8437C17.9745 10.7082 15.6935 4.77179 11.5157 0.218566C11.4535 0.150085 11.3773 0.0952397 11.2922 0.0575871C11.2071 0.0199344 11.1149 0.000314749 11.0215 0L11.0287 0Z" fill="#4EA8DE"/>
<path d="M11.0216 16.1598C10.4715 16.1598 9.93376 15.9995 9.47611 15.699C9.01846 15.3986 8.6614 14.9715 8.44993 14.4716C8.23847 13.9716 8.18206 13.4213 8.28782 12.8898C8.39358 12.3584 8.65678 11.8697 9.04423 11.4853C9.43169 11.1009 9.92606 10.838 10.465 10.7298C11.004 10.6216 11.5634 10.6729 12.0728 10.8773C12.5822 11.0816 13.0188 11.4298 13.3275 11.8781C13.6361 12.3263 13.8031 12.8545 13.8074 13.396C13.8159 13.7469 13.7542 14.0961 13.6256 14.4235C13.4971 14.751 13.3043 15.0503 13.0582 15.3043C12.8121 15.5583 12.5176 15.7622 12.1915 15.9041C11.8654 16.0461 11.5141 16.1234 11.1576 16.1316C11.1126 16.1387 11.0666 16.1387 11.0216 16.1316V16.1598Z" fill="#4EA8DE"/>
<path d="M14.8959 27.5958C14.7167 27.5901 14.5382 27.6198 14.3708 27.683C14.2034 27.7462 14.0505 27.8416 13.9211 27.9638C13.7917 28.086 13.6884 28.2323 13.6172 28.3943C13.546 28.5563 13.5084 28.7307 13.5066 28.9072V33.067C13.5066 33.4297 13.653 33.7776 13.9135 34.0342C14.1741 34.2907 14.5274 34.4348 14.8959 34.4348C15.2644 34.4348 15.6178 34.2907 15.8783 34.0342C16.1389 33.7776 16.2852 33.4297 16.2852 33.067V28.9636C16.291 28.7877 16.2611 28.6126 16.1973 28.4482C16.1336 28.2839 16.0372 28.1337 15.9139 28.0064C15.7906 27.879 15.6428 27.7772 15.4791 27.7067C15.3154 27.6362 15.139 27.5985 14.9604 27.5958H14.8959Z" fill="#5E60CE"/>
<path d="M7.16154 27.5957C6.97931 27.5863 6.797 27.6129 6.62546 27.6742C6.45392 27.7355 6.29665 27.8302 6.16302 27.9525C6.02939 28.0749 5.92213 28.2224 5.84761 28.3864C5.77309 28.5504 5.73284 28.7275 5.72925 28.9071V33.067C5.72925 33.4297 5.87562 33.7776 6.13617 34.0341C6.39672 34.2906 6.7501 34.4348 7.11857 34.4348C7.48704 34.4348 7.84042 34.2906 8.10097 34.0341C8.36152 33.7776 8.50789 33.4297 8.50789 33.067V28.9635C8.51362 28.7877 8.48373 28.6125 8.41998 28.4482C8.35623 28.2838 8.25989 28.1336 8.13658 28.0063C8.01326 27.879 7.86544 27.7771 7.70173 27.7067C7.53802 27.6362 7.36169 27.5985 7.18302 27.5957H7.16154Z" fill="#5E60CE"/>
<path d="M11.3893 28.0003C11.2106 27.9966 11.0329 28.0275 10.8664 28.0914C10.6998 28.1553 10.5477 28.2509 10.4187 28.3726C10.2897 28.4944 10.1863 28.64 10.1145 28.8012C10.0426 28.9623 10.0037 29.1358 10 29.3117V35.0438C10 35.4065 10.1464 35.7544 10.4069 36.011C10.6675 36.2675 11.0209 36.4116 11.3893 36.4116C11.7578 36.4116 12.1112 36.2675 12.3717 36.011C12.6323 35.7544 12.7786 35.4065 12.7786 35.0438V29.4034C12.7844 29.2275 12.7545 29.0523 12.6907 28.888C12.627 28.7237 12.5306 28.5735 12.4073 28.4461C12.284 28.3188 12.1362 28.217 11.9725 28.1465C11.8088 28.076 11.6324 28.0383 11.4538 28.0356L11.3893 28.0003Z" fill="#5E60CE"/>
</svg>
